<svg width="70" height="51" viewBox="0 0 70 51" fill="none" xmlns="http://www.w3.org/2000/svg">
<path d="M2.1 3.16H3.42L3.42 45.28H2.1L2.1 46H10.5V45.28H10.26C6.84 45.04 4.2 42.22 4.2 38.8L4.2 4.24L27.18 46H31.32L31.32 3.16L32.64 3.16V2.38L24.24 2.38V3.1L24.48 3.16C27.9 3.34 30.54 6.16 30.54 9.58L30.54 44.14L7.56 2.38L2.1 2.38V3.16ZM36.9633 2.38V3.16L38.2833 3.16L38.2833 45.28H36.9633V46H37.2033C38.8233 46 53.0433 46 53.1033 46C55.2033 46 57.2433 45.52 59.1633 44.68C61.0233 43.78 62.5833 42.58 63.9633 41.08C66.3033 38.38 67.6233 34.9 67.6233 31.36C67.6233 27.76 66.3033 24.34 63.9633 21.64C63.3633 20.98 62.7033 20.32 61.9833 19.78C63.3033 17.92 64.0233 15.7 64.0233 13.42C64.0233 10.42 62.8833 7.66 60.7833 5.56C58.7433 3.52 55.9233 2.38 52.9233 2.38L36.9633 2.38ZM53.1033 45.28C53.0433 45.28 52.9833 45.28 52.9233 45.28H42.6033L42.6033 10.42C43.2033 11.86 44.0433 13.12 45.1233 14.26C47.2233 16.3 49.9833 17.44 52.9233 17.44H53.0433H53.1033C54.5433 17.44 55.9833 17.8 57.3033 18.4C58.5633 19 59.7033 19.78 60.6633 20.86C62.2833 22.72 63.2433 25.12 63.3033 27.58V35.08C63.2433 37.78 62.1633 40.3 60.2433 42.22C58.3233 44.14 55.8033 45.22 53.1033 45.28ZM61.3833 19.3C58.9233 17.62 56.1033 16.66 53.1033 16.66C53.0433 16.66 52.9833 16.66 52.9233 16.66H52.8633C50.1633 16.66 47.5833 15.58 45.6633 13.66C43.7433 11.74 42.6633 9.22 42.6033 6.46V3.16L52.9233 3.16C55.6833 3.16 58.2633 4.18 60.2433 6.16C62.1633 8.08 63.2433 10.66 63.2433 13.42C63.2433 15.52 62.5833 17.56 61.3833 19.3Z" fill="#DCB3FC"/>
</svg>
